<?xml version="1.0" standalone="no"?><!DOCTYPE svg PUBLIC "-//W3C//DTD SVG 1.1//EN" "http://www.w3.org/Graphics/SVG/1.1/DTD/svg11.dtd"><svg width="200" height="200" viewBox="0 0 200 200" version="1.1" xmlns="http://www.w3.org/2000/svg" xmlns:xlink="http://www.w3.org/1999/xlink"><defs><style type="text/css"><![CDATA[
@font-face { font-family: ifont; src: url("//at.alicdn.com/t/font_1442373896_4754455.eot?#iefix") format("embedded-opentype"), url("//at.alicdn.com/t/font_1442373896_4754455.woff") format("woff"), url("//at.alicdn.com/t/font_1442373896_4754455.ttf") format("truetype"), url("//at.alicdn.com/t/font_1442373896_4754455.svg#ifont") format("svg"); }

]]></style></defs><g class="transform-group"><g transform="scale(0.1953125, 0.1953125)"><path d="M990.176 67.2l-466.624 446.912 465.344 443.456c12.32 11.744 12.672 31.136 0.8 43.296s-31.488 12.544-43.808 0.8l-475.904-453.504c-9.568-9.12-11.712-22.784-6.72-34.176-4.992-11.456-2.848-25.216 6.752-34.4l477.056-456.896c12.352-11.808 32-11.456 43.904 0.8s11.52 31.808-0.8 43.648zM87.776 514.144l465.344 443.456c12.32 11.744 12.672 31.136 0.8 43.296s-31.488 12.544-43.808 0.8l-475.904-453.504c-9.568-9.12-11.712-22.784-6.72-34.176-4.992-11.456-2.848-25.216 6.752-34.4l477.056-456.896c12.352-11.808 32-11.456 43.904 0.8s11.52 31.808-0.8 43.648l-466.624 446.912z" fill="#272636"></path></g></g></svg>